<svg width="20" height="12" viewBox="0 0 20 12" fill="none" xmlns="http://www.w3.org/2000/svg">
<path d="M12 6C12 9.31371 9.31371 12 6 12C2.68629 12 0 9.31371 0 6C0 2.68629 2.68629 0 6 0C9.31371 0 12 2.68629 12 6Z" fill="#E80B26"/>
<path d="M20 6C20 9.31371 17.3137 12 14 12C10.6863 12 8 9.31371 8 6C8 2.68629 10.6863 0 14 0C17.3137 0 20 2.68629 20 6Z" fill="#F59D31"/>
<path d="M10 10.4722C11.2275 9.37354 12 7.77702 12 6C12 4.22298 11.2275 2.62646 10 1.52783C8.77246 2.62646 8 4.22298 8 6C8 7.77702 8.77246 9.37354 10 10.4722Z" fill="#FC6020"/>
</svg>
