<svg width="28" height="8" viewBox="0 0 28 8" fill="none" xmlns="http://www.w3.org/2000/svg">
<path d="M14.4498 2.55756C14.4348 3.67194 15.4996 4.29384 16.3018 4.66357C17.1259 5.04296 17.4028 5.28622 17.3996 5.62544C17.3933 6.14469 16.7422 6.37381 16.1327 6.38274C15.0695 6.39836 14.4513 6.11121 13.9598 5.89399L13.5768 7.58936C14.0699 7.80435 14.983 7.99182 15.9298 8C18.1522 8 19.6063 6.96225 19.6142 5.35317C19.6228 3.31114 16.6281 3.19807 16.6486 2.28529C16.6557 2.00855 16.9348 1.71322 17.5467 1.63809C17.8494 1.60015 18.6854 1.57114 19.633 1.98401L20.005 0.343686C19.4954 0.168123 18.8403 0 18.0248 0C15.9329 0 14.4616 1.05189 14.4498 2.55756ZM23.5793 0.141343C23.1735 0.141343 22.8314 0.36526 22.6788 0.708946L19.5041 7.87949H21.7249L22.1669 6.7242H24.8808L25.1372 7.87949H27.0946L25.3865 0.141343H23.5793ZM23.8899 2.23173L24.5309 5.13744H22.7756L23.8899 2.23173ZM11.7571 0.141343L10.0065 7.87949H12.1227L13.8725 0.141343H11.7571ZM8.62633 0.141343L6.42357 5.40822L5.53256 0.929886C5.42797 0.429979 5.0151 0.141343 4.55661 0.141343H0.955604L0.905273 0.366003C1.64451 0.51776 2.4844 0.762507 2.99321 1.02436C3.30464 1.1843 3.3935 1.32416 3.49574 1.7043L5.18339 7.87949H7.41996L10.8487 0.141343H8.62633Z" fill="#3150B9"/>
</svg>
